<svg width="1792" height="1024" viewBox="0 0 1792 1024" fill="none" xmlns="http://www.w3.org/2000/svg" role="img" aria-labelledby="title desc">
  <title id="title">Awesome AI Skills by SunyataAI</title>
  <desc id="desc">A black, white, and grayscale technology banner for the Awesome AI Skills repository.</desc>
  <defs>
    <radialGradient id="glow" cx="0" cy="0" r="1" gradientUnits="userSpaceOnUse" gradientTransform="translate(1286 462) rotate(90) scale(430)">
      <stop stop-color="#FFFFFF" stop-opacity="0.18"/>
      <stop offset="0.46" stop-color="#A9A9A9" stop-opacity="0.08"/>
      <stop offset="1" stop-color="#000000" stop-opacity="0"/>
    </radialGradient>
    <linearGradient id="line" x1="96" y1="0" x2="1696" y2="1024" gradientUnits="userSpaceOnUse">
      <stop stop-color="#FFFFFF" stop-opacity="0.18"/>
      <stop offset="0.52" stop-color="#FFFFFF" stop-opacity="0.05"/>
      <stop offset="1" stop-color="#FFFFFF" stop-opacity="0.12"/>
    </linearGradient>
    <pattern id="dotGrid" width="36" height="36" patternUnits="userSpaceOnUse">
      <circle cx="3" cy="3" r="2" fill="#FFFFFF" fill-opacity="0.28"/>
    </pattern>
    <filter id="soft" x="-30%" y="-30%" width="160%" height="160%" color-interpolation-filters="sRGB">
      <feGaussianBlur stdDeviation="2.5"/>
    </filter>
  </defs>

  <rect width="1792" height="1024" fill="#030303"/>
  <rect width="1792" height="1024" fill="url(#glow)"/>

  <g opacity="0.48">
    <path d="M0 460H1792M0 230H1792M0 690H1792" stroke="url(#line)" stroke-width="1"/>
    <path d="M250 0V1024M502 0V1024M754 0V1024M1006 0V1024M1258 0V1024M1510 0V1024" stroke="url(#line)" stroke-width="1"/>
  </g>

  <rect x="42" y="38" width="190" height="190" fill="url(#dotGrid)" opacity="0.7"/>
  <rect x="1648" y="184" width="98" height="98" fill="url(#dotGrid)" opacity="0.42"/>
  <rect x="520" y="836" width="116" height="78" fill="url(#dotGrid)" opacity="0.45"/>

  <g transform="translate(1016 142)" opacity="0.92">
    <circle cx="326" cy="326" r="284" stroke="#FFFFFF" stroke-opacity="0.12" stroke-width="2"/>
    <circle cx="326" cy="326" r="220" stroke="#FFFFFF" stroke-opacity="0.2" stroke-width="2"/>
    <circle cx="326" cy="326" r="156" stroke="#FFFFFF" stroke-opacity="0.28" stroke-width="2"/>
    <circle cx="326" cy="326" r="96" stroke="#FFFFFF" stroke-opacity="0.4" stroke-width="2"/>
    <circle cx="326" cy="326" r="314" stroke="#FFFFFF" stroke-opacity="0.2" stroke-width="2" stroke-dasharray="2 14"/>

    <g stroke="#FFFFFF" stroke-opacity="0.7" stroke-width="2">
      <path d="M326 74V164"/>
      <path d="M106 326H196"/>
      <path d="M326 488V582"/>
      <path d="M528 326H628"/>
      <path d="M176 504L236 444"/>
      <path d="M494 154L558 94"/>
    </g>
    <g fill="#FFFFFF">
      <circle cx="326" cy="164" r="7"/>
      <circle cx="196" cy="326" r="7"/>
      <circle cx="326" cy="488" r="7"/>
      <circle cx="528" cy="326" r="7"/>
      <circle cx="236" cy="444" r="6"/>
      <circle cx="494" cy="154" r="6"/>
    </g>

    <g transform="translate(196 202)">
      <path d="M56 278L72 206C28 160 22 94 56 48C94 -6 166 -10 230 44C294 -10 366 -6 404 48C438 94 432 160 388 206L404 278C408 294 390 306 376 296L294 248C252 264 208 264 166 248L84 296C70 306 52 294 56 278Z" fill="#020202" stroke="#FFFFFF" stroke-width="11" stroke-linejoin="round"/>
      <path d="M86 88C82 54 92 32 112 26C136 18 170 42 202 76" stroke="#FFFFFF" stroke-width="11" stroke-linecap="round"/>
      <path d="M374 88C378 54 368 32 348 26C324 18 290 42 258 76" stroke="#FFFFFF" stroke-width="11" stroke-linecap="round"/>
      <path d="M132 110L96 150L92 94L132 110Z" fill="#FFFFFF" fill-opacity="0.94"/>
      <path d="M328 110L364 150L368 94L328 110Z" fill="#FFFFFF" fill-opacity="0.94"/>
      <ellipse cx="158" cy="174" rx="20" ry="15" fill="#FFFFFF"/>
      <ellipse cx="302" cy="174" rx="20" ry="15" fill="#FFFFFF"/>
      <ellipse cx="150" cy="226" rx="25" ry="34" fill="#FFFFFF"/>
      <ellipse cx="310" cy="226" rx="25" ry="34" fill="#FFFFFF"/>
      <ellipse cx="230" cy="244" rx="120" ry="76" fill="#FFFFFF"/>
      <path d="M198 232C206 218 254 218 262 232C268 244 246 258 230 260C214 258 192 244 198 232Z" fill="#050505"/>
      <path d="M230 260V286" stroke="#050505" stroke-width="8" stroke-linecap="round"/>
      <path d="M230 286C214 310 184 310 174 290" stroke="#050505" stroke-width="8" stroke-linecap="round"/>
      <path d="M230 286C246 310 276 310 286 290" stroke="#050505" stroke-width="8" stroke-linecap="round"/>
    </g>

    <g fill="#050505" stroke="#FFFFFF" stroke-width="3">
      <circle cx="326" cy="54" r="54"/>
      <circle cx="64" cy="326" r="54"/>
      <circle cx="326" cy="610" r="54"/>
      <circle cx="650" cy="326" r="54"/>
      <circle cx="160" cy="536" r="54"/>
      <circle cx="586" cy="108" r="54"/>
    </g>
    <g stroke="#FFFFFF" stroke-width="4" stroke-linecap="round" stroke-linejoin="round">
      <path d="M306 49C306 38 314 30 326 30C338 30 346 38 346 49C346 62 326 74 326 74C326 74 306 62 306 49Z"/>
      <path d="M44 342C50 322 78 322 84 342M64 314C72 314 78 308 78 300C78 292 72 286 64 286C56 286 50 292 50 300C50 308 56 314 64 314Z"/>
      <path d="M296 598H356M296 622H356M306 586L326 566L346 586"/>
      <path d="M650 286L690 310V354L650 378L610 354V310L650 286ZM610 310L650 334L690 310M650 334V378"/>
      <path d="M136 536L160 512L184 536L160 560L136 536ZM116 536H136M184 536H204M160 492V512M160 560V580"/>
      <path d="M560 102H612M560 126H612M574 82H598V102M574 126V146H598"/>
    </g>
  </g>

  <g transform="translate(102 270)">
    <text x="0" y="0" fill="#FFFFFF" font-family="Inter, Arial, Helvetica, sans-serif" font-size="128" font-weight="800">Awesome</text>
    <text x="0" y="148" fill="#FFFFFF" font-family="Inter, Arial, Helvetica, sans-serif" font-size="128" font-weight="800">AI Skills</text>
    <line x1="0" y1="198" x2="690" y2="198" stroke="#FFFFFF" stroke-opacity="0.62" stroke-width="2"/>
    <circle cx="714" cy="198" r="6" fill="#FFFFFF" fill-opacity="0.78"/>
    <text x="0" y="262" fill="#D6D6D6" font-family="Inter, Arial, Helvetica, sans-serif" font-size="34" font-weight="400">Curated AI skills, agents, MCP tools, and workflows.</text>
  </g>

  <g transform="translate(100 826)">
    <circle cx="28" cy="28" r="24" stroke="#FFFFFF" stroke-width="8"/>
    <path d="M28 4C48 4 62 24 54 42" stroke="#0B0B0B" stroke-width="9" stroke-linecap="round"/>
    <text x="76" y="41" fill="#FFFFFF" font-family="Inter, Arial, Helvetica, sans-serif" font-size="42" font-weight="700">SunyataAI</text>
  </g>

  <g opacity="0.42" stroke="#FFFFFF" stroke-width="2">
    <path d="M1538 774H1698M1508 804H1698M1478 834H1698M1448 864H1698M1418 894H1698"/>
  </g>
  <circle cx="1357" cy="574" r="4" fill="#FFFFFF" opacity="0.68"/>
  <circle cx="1434" cy="754" r="3" fill="#FFFFFF" opacity="0.38"/>
  <circle cx="1670" cy="510" r="3" fill="#FFFFFF" opacity="0.34"/>
  <circle cx="1470" cy="220" r="2" fill="#FFFFFF" opacity="0.26"/>
</svg>
